# This file uses centimeters as units for non-parametric coordinates.

mtllib grape press.mtl
g default
v -0.500000 -0.006430 0.500000
v 0.500000 -0.006430 0.500000
v -0.500000 0.072708 0.500000
v 0.500000 0.072708 0.500000
v -0.500000 0.072708 -0.500000
v 0.500000 0.072708 -0.500000
v -0.500000 -0.006430 -0.500000
v 0.500000 -0.006430 -0.500000
vt 0.375000 0.000000
vt 0.625000 0.000000
vt 0.375000 0.250000
vt 0.625000 0.250000
vt 0.375000 0.500000
vt 0.625000 0.500000
vt 0.375000 0.750000
vt 0.625000 0.750000
vt 0.375000 1.000000
vt 0.625000 1.000000
vt 0.875000 0.000000
vt 0.875000 0.250000
vt 0.125000 0.000000
vt 0.125000 0.250000
vn 0.000000 0.000000 1.000000
vn 0.000000 0.000000 1.000000
vn 0.000000 0.000000 1.000000
vn 0.000000 0.000000 1.000000
vn 0.000000 1.000000 0.000000
vn 0.000000 1.000000 0.000000
vn 0.000000 1.000000 0.000000
vn 0.000000 1.000000 0.000000
vn 0.000000 0.000000 -1.000000
vn 0.000000 0.000000 -1.000000
vn 0.000000 0.000000 -1.000000
vn 0.000000 0.000000 -1.000000
vn 0.000000 -1.000000 0.000000
vn 0.000000 -1.000000 0.000000
vn 0.000000 -1.000000 0.000000
vn 0.000000 -1.000000 0.000000
vn 1.000000 0.000000 0.000000
vn 1.000000 0.000000 0.000000
vn 1.000000 0.000000 0.000000
vn 1.000000 0.000000 0.000000
vn -1.000000 0.000000 0.000000
vn -1.000000 0.000000 0.000000
vn -1.000000 0.000000 0.000000
vn -1.000000 0.000000 0.000000
s off
g base
usemtl initialShadingGroup
f 1/1/1 2/2/2 4/4/3 3/3/4
f 3/3/5 4/4/6 6/6/7 5/5/8
f 5/5/9 6/6/10 8/8/11 7/7/12
f 7/7/13 8/8/14 2/10/15 1/9/16
f 2/2/17 8/11/18 6/12/19 4/4/20
f 7/13/21 1/1/22 3/3/23 5/14/24
g default
v -0.190426 0.091442 0.245351
v 0.219014 0.088075 0.218086
v -0.175606 0.491650 0.236750
v 0.232986 0.494809 0.231675
v -0.187825 0.485104 -0.199612
v 0.204826 0.487266 -0.151850
v -0.200805 0.087042 -0.193451
v 0.180667 0.087281 -0.145739
v -0.276273 0.482578 0.043943
v 0.302289 0.499037 0.026125
v 0.261983 0.088075 0.023487
v -0.289772 0.088414 0.043566
v -0.191339 0.376958 0.256818
v 0.245244 0.378566 0.246945
v 0.317287 0.382634 0.028383
v 0.213663 0.371054 -0.163447
v -0.204174 0.371170 -0.215753
v -0.299666 0.369393 0.045423
v -0.190874 0.242384 0.276025
v 0.249413 0.243848 0.237229
v 0.325542 0.245435 0.025068
v 0.209488 0.239358 -0.161263
v -0.214084 0.238362 -0.215006
v -0.309617 0.239026 0.043270
v 0.011317 0.088467 0.304623
v 0.024486 0.086914 0.030409
v 0.003464 0.084530 -0.224882
v 0.011292 0.233828 -0.250351
v 0.018729 0.360106 -0.249961
v 0.024987 0.475320 -0.231658
v 0.047368 0.489579 0.030909
v 0.032247 0.497684 0.311284
v 0.025113 0.380681 0.328515
v 0.022469 0.243894 0.332449
v 0.210795 0.489995 0.027883
v 0.038841 0.490315 0.225546
v -0.164566 0.475104 0.039561
v 0.032644 0.475374 -0.159228
v 0.204737 0.490106 0.173538
v -0.110301 0.482073 0.158962
v -0.148452 0.473215 -0.083923
v 0.161062 0.483596 -0.084765
vt 0.375000 0.000000
vt 0.625000 0.000000
vt 0.375000 0.250000
vt 0.625000 0.250000
vt 0.375000 0.500000
vt 0.625000 0.500000
vt 0.375000 0.750000
vt 0.625000 0.750000
vt 0.375000 1.000000
vt 0.625000 1.000000
vt 0.875000 0.000000
vt 0.875000 0.250000
vt 0.125000 0.000000
vt 0.125000 0.250000
vt 0.254744 0.250000
vt 0.375000 0.370256
vt 0.625000 0.370256
vt 0.745256 0.250000
vt 0.625000 0.879744
vt 0.745256 0.000000
vt 0.254744 0.000000
vt 0.375000 0.879744
vt 0.375000 0.167993
vt 0.625000 0.167993
vt 0.745256 0.167993
vt 0.625000 0.582007
vt 0.875000 0.167993
vt 0.125000 0.167993
vt 0.375000 0.582007
vt 0.254744 0.167993
vt 0.375000 0.091961
vt 0.625000 0.091961
vt 0.745256 0.091961
vt 0.625000 0.658039
vt 0.875000 0.091961
vt 0.125000 0.091961
vt 0.375000 0.658039
vt 0.254744 0.091961
vt 0.501545 0.000000
vt 0.501545 1.000000
vt 0.501545 0.879744
vt 0.501545 0.750000
vt 0.501545 0.658039
vt 0.501545 0.582007
vt 0.501545 0.500000
vt 0.501545 0.370256
vt 0.501545 0.250000
vt 0.501545 0.167993
vt 0.501545 0.091961
vt 0.579635 0.370256
vt 0.501545 0.286774
vt 0.417546 0.370256
vt 0.501545 0.464209
vt 0.597941 0.288140
vt 0.426411 0.305785
vt 0.409839 0.435584
vt 0.585553 0.452209
vn 0.032433 0.168116 0.985234
vn 0.034295 0.094580 0.994926
vn 0.363563 0.048631 0.930299
vn 0.355696 0.136643 0.924559
vn 0.018844 0.999390 0.029420
vn -0.013192 0.999910 -0.002401
vn -0.051949 0.998167 -0.031058
vn -0.044731 0.998695 -0.024641
vn -0.071700 0.997046 -0.027539
vn -0.084549 0.996417 -0.002030
vn 0.123718 0.061392 -0.990417
vn 0.135675 0.146657 -0.979839
vn 0.396377 0.121978 -0.909949
vn 0.403844 0.045472 -0.913697
vn -0.002275 -0.999974 0.006900
vn -0.002118 -0.999978 0.006254
vn 0.008485 -0.999949 0.005440
vn 0.004998 -0.999978 0.004377
vn 0.988057 0.132510 -0.078639
vn 0.994481 0.073851 -0.074525
vn 0.867920 0.055455 -0.493598
vn 0.870447 0.108468 -0.480164
vn -0.932139 0.122906 -0.340603
vn -0.990937 0.129334 0.036274
vn -0.978615 0.203579 0.029456
vn -0.924128 0.183349 -0.335216
vn -0.029635 0.999250 -0.024928
vn -0.017056 0.998616 -0.049760
vn -0.005618 0.997157 -0.075148
vn -0.060702 0.996939 -0.049265
vn 0.943880 0.075537 0.321534
vn 0.939377 0.133839 0.315688
vn -0.004625 -0.999956 0.008146
vn 0.002484 -0.999990 0.003610
vn -0.885177 0.116328 0.450477
vn -0.874922 0.192252 0.444466
vn 0.071921 -0.083481 0.993911
vn 0.374822 -0.106537 0.920955
vn 0.943916 -0.137962 0.299983
vn 0.985774 -0.144116 -0.086483
vn 0.862224 -0.140922 -0.486529
vn 0.122306 -0.093731 -0.988057
vn 0.408428 -0.098087 -0.907505
vn -0.937563 -0.028075 -0.346680
vn -0.998932 -0.031651 0.033650
vn -0.891831 -0.024189 0.451722
vn 0.067986 -0.189974 0.979432
vn 0.378810 -0.187365 0.906310
vn 0.917861 -0.293121 0.267604
vn 0.946821 -0.304146 -0.104997
vn 0.843424 -0.272655 -0.462920
vn 0.118577 -0.170036 -0.978278
vn 0.406042 -0.171474 -0.897622
vn -0.929676 -0.127017 -0.345788
vn -0.991277 -0.126839 0.035805
vn -0.888210 -0.104830 0.447318
vn -0.008394 -0.999925 0.008943
vn -0.009690 -0.999888 0.011377
vn -0.007168 -0.999952 0.006641
vn -0.154157 -0.077518 -0.985001
vn -0.154198 -0.155426 -0.975739
vn -0.147963 0.077508 -0.985951
vn -0.140853 0.160736 -0.976895
vn 0.049154 0.998588 -0.020151
vn 0.009418 0.999522 -0.029452
vn 0.011779 0.999931 0.000282
vn 0.066399 0.996832 0.043793
vn 0.029614 0.995360 -0.091552
vn -0.010600 0.998276 -0.057734
vn -0.303555 0.128294 0.944137
vn -0.324146 0.181457 0.928441
vn -0.277069 -0.051333 0.959478
vn -0.265060 -0.171905 0.948784
vn -0.032806 0.998942 -0.032229
s 1
g pCube1
usemtl initialShadingGroup
f 40/61/25 41/62/26 22/38/27 12/18/28
s 2
f 38/59/29 46/67/30 50/71/31 43/64/32 18/31/33 14/20/34
s 3
f 37/58/35 38/59/36 14/20/37 24/40/38
s 4
f 34/55/39 35/56/40 16/22/41 19/33/42
s 5
f 18/32/43 23/39/44 24/41/45 14/26/46
s 6
f 25/42/47 26/44/48 17/29/49 13/28/50
s 2
f 43/64/32 47/68/51 44/65/52 40/61/53 12/18/54 18/31/33
s 5
f 22/38/55 23/39/44 18/32/43 12/18/56
s 4
f 33/54/57 34/55/39 19/33/42 10/24/58
s 6
f 17/29/49 26/44/48 21/37/59 11/17/60
s 1
f 41/62/26 42/63/61 28/46/62 22/38/27
s 5
f 28/46/63 29/47/64 23/39/44 22/38/55
f 24/41/45 23/39/44 29/47/64 30/49/65
s 3
f 36/57/66 37/58/35 24/40/38 30/48/67
s 6
f 31/50/68 32/52/69 26/44/48 25/42/47
f 21/37/59 26/44/48 32/52/69 27/45/70
s 1
f 42/63/61 33/53/71 10/16/72 28/46/62
s 5
f 10/16/73 19/34/74 29/47/64 28/46/63
f 30/49/65 29/47/64 19/34/74 16/25/75
s 3
f 35/56/76 36/57/66 30/48/67 16/22/77
s 6
f 15/27/78 20/35/79 32/52/69 31/50/68
f 27/45/70 32/52/69 20/35/79 9/15/80
s 4
f 20/36/81 34/55/39 33/54/57 9/23/82
f 15/21/83 35/56/40 34/55/39 20/36/81
s 3
f 31/51/84 36/57/66 35/56/76 15/21/85
f 25/43/86 37/58/35 36/57/66 31/51/84
f 13/19/87 38/59/36 37/58/35 25/43/86
s 2
f 17/30/88 45/66/89 49/70/90 46/67/30 38/59/29 13/19/91
f 11/17/92 40/61/53 44/65/52 48/69/93 45/66/89 17/30/88
s 1
f 21/37/94 41/62/26 40/61/25 11/17/95
f 27/45/96 42/63/61 41/62/26 21/37/94
f 9/15/97 33/53/71 42/63/61 27/45/96
s 2
f 39/60/98 44/65/52 47/68/51 43/64/32
f 45/66/89 48/69/93 44/65/52 39/60/98
f 46/67/30 49/70/90 45/66/89 39/60/98
f 43/64/32 50/71/31 46/67/30 39/60/98
